<svg xmlns="http://www.w3.org/2000/svg" viewBox="0 0 1200 675" width="1200" height="675">
  <rect width="1200" height="675" fill="#18181B"/>
  <g transform="translate(150 207) scale(4)">
    <path fill="#34D399" fill-rule="evenodd" d="M32 2 58 12v18c0 16-11 27-26 32C17 57 6 46 6 30V12L32 2Zm0 7.5L13 16.8V30c0 12 8 20.6 19 24.6C43 50.6 51 42 51 30V16.8L32 9.5Z"/>
    <path fill="#34D399" d="M32 20.5a6.5 6.5 0 0 1 3.6 11.9L37.8 44H26.2l2.2-11.6A6.5 6.5 0 0 1 32 20.5Z"/>
  </g>
  <text x="440" y="340" font-family="Inter, Helvetica, Arial, sans-serif" font-size="110" font-weight="700" fill="#FAFAFA">LibreSeal</text>
  <text x="444" y="420" font-family="Inter, Helvetica, Arial, sans-serif" font-size="36" fill="#A1A1AA">Free, self-hosted secrets management</text>
</svg>
